<svg xmlns="http://www.w3.org/2000/svg" xmlns:xlink="http://www.w3.org/1999/xlink" width="1040.7573mm" height="300mm" viewBox="0 0 1040.7573 300"><defs><radialGradient xlink:href="#a" id="b" cx="-4.7330275" cy="8.6057615" r="11.3265" fx="-4.7330275" fy="8.6057615" gradientTransform="matrix(-.42822 1.13466 -1.29936 -.49038 24.258 -9.825)" gradientUnits="userSpaceOnUse"/><linearGradient id="a"><stop offset="0" style="stop-color:#f4f4f6;stop-opacity:1"/><stop offset="0.43771678" style="stop-color:#8eb3de;stop-opacity:1"/><stop offset="0.82617682" style="stop-color:#4c8ece;stop-opacity:1"/><stop offset="1" style="stop-color:#297ecb;stop-opacity:1"/></linearGradient></defs><path d="M102.645-11.565h10.145v-1.016h-8.354v-3.662h-1.79z" style="fill:#575e61;fill-opacity:1;fill-rule:nonzero;stroke:none;stroke-width:.743185" transform="translate(-70.63 325.276) scale(9.83671)"/><path d="M110.984-18.9h-9.483v1.016h3.851v2.919h1.852v-2.919h3.78v1.056h-2.572v1.016h2.572v1.66h1.79v-11.892h-1.79z" style="fill:#575e61;fill-opacity:1;fill-rule:nonzero;stroke:none;stroke-width:.743185" transform="translate(-70.63 325.276) scale(9.83671)"/><path d="M105.489-19.915c1.89 0 3.42-1.36 3.42-3.035 0-1.674-1.53-3.033-3.42-3.033s-3.42 1.36-3.42 3.033c0 1.675 1.53 3.035 3.42 3.035m0-5.075c.965 0 1.749.914 1.749 2.04 0 1.128-.784 2.043-1.75 2.043-.965 0-1.748-.915-1.748-2.043 0-1.126.783-2.04 1.749-2.04zM89.22-20.899h3.547v1.714H87.51v1.028h12.323v-1.028h-5.259v-1.714H98.4v-1.027h-7.376v-2.908H98.4v-1.027h-9.18zM89.147-15.689h7.136v4.262h1.806v-5.29h-8.942zM57.427-25.713h-9.603v1.03h7.799v4.556h-9.16v1.028H58.79v-1.028h-1.362zM48.286-11.68h8.725v-6.028h-8.725v6.028m1.806-4.999h5.115v3.97h-5.115zM81.24-24.718v-.894h-6.758v1.028h4.809c0 2.679-2.382 4.752-4.81 5.051v1.022c2.474-.18 6.758-1.791 6.758-6.207zM82.96-18.1h1.806v-3.903h1.767v-1.03h-1.767v-3.011H82.96zM76.176-11.673h8.59v-5.586h-8.59v5.586m1.805-4.558h4.98v3.53h-4.98zM65.409-16.733v-2.81h2.564v2.769h1.654v-2.769h3.484v-1.028H60.27v1.028h3.485v2.81z" style="fill:#575e61;fill-opacity:1;fill-rule:nonzero;stroke:none;stroke-width:.743185" transform="translate(-70.63 325.276) scale(9.83671)"/><path d="M62.174-14.51c0-1.91 2.022-3.456 4.517-3.456 2.496 0 4.517 1.547 4.517 3.456 0 1.91-2.021 3.456-4.517 3.456-2.495 0-4.517-1.546-4.517-3.456m4.517 2.368c1.391 0 2.518-1.06 2.518-2.368 0-1.307-1.127-2.367-2.518-2.367-1.39 0-2.519 1.06-2.519 2.367s1.128 2.368 2.52 2.368zM62.999-23.054c0-1.775 1.653-3.212 3.692-3.212 2.04 0 3.692 1.437 3.692 3.212 0 1.772-1.653 3.21-3.692 3.21S63-21.281 63-23.053m3.692 2.24c1.02 0 1.849-1.003 1.849-2.24 0-1.239-.828-2.241-1.849-2.241-1.02 0-1.849 1.002-1.849 2.24 0 1.238.828 2.241 1.85 2.241zM46.33-3.008v-4.236h1.415v.553h-.785v1.085h.756v.553h-.756v2.045zM48.58-3.008v-4.237h.63v4.237zM51.114-7.245l.178 1.218c.143.787.245 1.605.298 2.403h.023v-.226c.007-.412-.016-.83-.016-1.24v-2.155h.518v4.237h-.935l-.298-2.118c-.1-.525-.136-1.003-.19-1.503h-.025c0 .184.013.37.02.548v3.073h-.518v-4.237zM53.694-4.715l.155-1.759h.042l.13 1.76h-.327m-.766 1.706h.57l.138-1.153h.444l.12 1.153h.634l-.48-4.237h-.944zM56.599-7.245l.18 1.218c.143.787.244 1.605.297 2.403h.024v-.226c.005-.412-.016-.83-.016-1.24v-2.155h.517v4.237h-.935l-.297-2.118c-.102-.525-.138-1.003-.191-1.503h-.024c0 .184.012.37.019.548v3.073h-.52v-4.237h.947zM59.567-5.696v-.861c0-.216-.066-.262-.191-.262-.133 0-.2.046-.2.262v2.863c0 .213.067.261.2.261.125 0 .191-.048.191-.261v-.915h.63v.968c0 .551-.434.71-.827.71-.39 0-.825-.159-.825-.71v-2.97c0-.552.434-.711.825-.711.393 0 .827.16.827.71v.916zM61.139-3.008v-4.237h.631v4.237zM63.346-4.715l.154-1.759h.04l.132 1.76h-.326m-.766 1.706h.569l.137-1.153h.445l.12 1.153h.634l-.481-4.237h-.943zM65.304-3.01v-4.235h.63v3.683h.804v.552zM69.75-3.694c0 .213.065.261.197.261.127 0 .194-.048.194-.261v-.446c0-.595-1.022-1.176-1.022-1.865v-.606c0-.552.434-.711.823-.711.395 0 .83.16.83.71v.89h-.63v-.835c0-.216-.068-.262-.195-.262-.132 0-.198.046-.198.262v.52c0 .305 1.022 1.22 1.022 1.647v.75c0 .55-.434.71-.83.71-.389 0-.823-.16-.823-.71v-.975h.631zM73.348-7.245v3.604c0 .551-.435.71-.83.71-.388 0-.823-.159-.823-.71v-3.604h.63v3.55c0 .214.066.262.199.262.126 0 .193-.048.193-.261v-3.55zM74.902-6.742c.253-.018.391.013.391.404v1.008c-.017.197-.204.19-.391.19v-1.602m0 3.734v-1.63c.676.037 1.028-.177 1.022-.865v-.917c.019-.563-.292-.825-.992-.825h-.66v4.237zM76.865-3.01v-4.234h1.404v.553h-.773v1.085h.742v.553h-.742v1.49h.784v.553zM79.728-6.742h.15c.145 0 .24.048.24.208v.766c0 .156-.048.274-.27.274h-.12v-1.248m0 3.734v-1.967c.295-.013.39.088.39.345 0 .497-.029 1.134.078 1.622h.63c-.1-.585-.065-1.18-.1-1.747-.025-.387-.32-.483-.6-.519v-.011c.534-.06.624-.32.624-.637v-.6c0-.545-.31-.723-.817-.723h-.836v4.237h.631zM82.06-7.245l.195 1.768c.05.416.096 1.243.143 1.665h.013c.036-.512.084-1.017.125-1.523l.19-1.91h.633l-.501 4.237h-.953l-.476-4.237zM84.16-3.008v-4.237h.63v4.237zM86.362-3.694c0 .213.067.261.199.261.127 0 .192-.048.192-.261v-.446c0-.595-1.02-1.176-1.02-1.865v-.606c0-.552.434-.711.822-.711.395 0 .829.16.829.71v.89h-.63v-.835c0-.216-.066-.262-.193-.262-.132 0-.2.046-.2.262v.52c0 .305 1.023 1.22 1.023 1.647v.75c0 .55-.434.71-.83.71-.387 0-.821-.16-.821-.71v-.975h.629zM88.938-6.557c0-.216.066-.262.2-.262.127 0 .192.046.192.262v2.863c0 .213-.065.261-.192.261-.134 0-.2-.048-.2-.261v-2.863m-.631 2.916c0 .551.435.71.824.71.396 0 .83-.159.83-.71v-2.97c0-.552-.434-.711-.83-.711-.39 0-.824.16-.824.71zM91.515-6.742h.15c.145 0 .241.048.241.208v.766c0 .156-.047.274-.27.274h-.121v-1.248m0 3.734v-1.967c.295-.013.391.088.391.345 0 .497-.03 1.134.078 1.622h.631c-.102-.585-.066-1.18-.102-1.747-.023-.387-.32-.483-.6-.519v-.011c.535-.06.623-.32.623-.637v-.6c0-.545-.308-.723-.816-.723h-.836v4.237h.63zM93.866-7.245l.209.923c.088.41.082.47.136.916h.013c.019-.333.041-.613.107-.887l.227-.952h.587l-.648 2.625v1.612h-.63v-1.583l-.65-2.654h.65zM98.144-3.694c0 .213.066.261.198.261.127 0 .193-.048.193-.261v-.446c0-.595-1.021-1.176-1.021-1.865v-.606c0-.552.434-.711.822-.711.396 0 .83.16.83.71v.89h-.63v-.835c0-.216-.067-.262-.194-.262-.132 0-.198.046-.198.262v.52c0 .305 1.023 1.22 1.023 1.647v.75c0 .55-.435.71-.83.71-.389 0-.823-.16-.823-.71v-.975h.63zM100.108-3.01v-4.234h1.403v.553h-.773v1.085h.743v.553h-.743v1.49h.785v.553zM102.97-6.742h.15c.144 0 .241.048.241.208v.766c0 .156-.048.274-.271.274h-.12v-1.248m0 3.734v-1.967c.294-.013.391.088.391.345 0 .497-.03 1.134.077 1.622h.631c-.1-.585-.065-1.18-.1-1.747-.025-.387-.322-.483-.603-.519v-.011c.536-.06.625-.32.625-.637v-.6c0-.545-.309-.723-.817-.723h-.835v4.237h.63zM105.302-7.245l.197 1.768c.047.416.095 1.243.142 1.665h.013c.036-.512.084-1.017.126-1.523l.19-1.91h.632l-.501 4.237h-.954l-.475-4.237h.631zM107.403-3.008v-4.237h.632v4.237zM109.996-5.696v-.861c0-.216-.066-.262-.193-.262-.132 0-.198.046-.198.262v2.863c0 .213.066.261.198.261.127 0 .193-.048.193-.261v-.915h.631v.968c0 .551-.435.71-.83.71-.388 0-.823-.159-.823-.71v-2.97c0-.552.435-.711.824-.711.394 0 .83.16.83.71v.916zM111.568-3.01v-4.234h1.404v.553h-.773v1.085h.743v.553h-.743v1.49h.785v.553z" style="fill:#575e61;fill-opacity:1;fill-rule:nonzero;stroke:none;stroke-width:.743185" transform="translate(-70.63 325.276) scale(9.83671)"/><path d="M25.789-33.063c-.83.042-1.654.17-2.459.394l1.072 3.864zM29.94-32.504a11.283 11.283 0 0 0-3.09-.564l-.84 4.668zM22.26-32.313c-.682.264-1.343.598-1.972 1l2.49 2.841zM37.23-24.985a11.26 11.26 0 0 0-2.555-4.46l-6.705 3.618zM37.243-18.596c.569-1.957.59-4.035.08-6.006l-9.39.432zM19.358-30.652c-.344.273-.679.56-.997.878-.228.23-.438.47-.644.715l3.741 1.593zM34.206-29.93a11.279 11.279 0 0 0-3.409-2.255l-3.513 4.848zM27.181-22.688l10.01 4.258a11.265 11.265 0 0 1-3.634 5.415l-6.376-9.673M17.045-28.18a11.227 11.227 0 0 0-1.264 2.419l4.924-.227zM29.748-12.52a11.285 11.285 0 0 0-.706-5.536l4.459 5.092a11.275 11.275 0 0 1-4.082 2.106c.148-.537.26-1.092.33-1.662" style="fill:#8eb3de;fill-opacity:1;fill-rule:nonzero;stroke:none;stroke-width:.743185" transform="translate(-70.63 325.276) scale(9.83671)"/><path d="M29.833-13.896A11.326 11.326 0 0 1 18.507-2.57 11.326 11.326 0 0 1 7.18-13.896a11.326 11.326 0 0 1 11.327-11.327 11.326 11.326 0 0 1 11.326 11.327z" style="opacity:1;fill:url(#b);fill-opacity:1;fill-rule:evenodd;stroke:none;stroke-width:5.20808;stroke-linecap:round;stroke-linejoin:round" transform="translate(-70.63 325.276) scale(9.83671)"/></svg>